<svg xmlns="http://www.w3.org/2000/svg" width="100" height="100" fill="none">
  <style>
    .background {
      fill: #fff
    }

    .foreground {
      fill: #000
    }

    @media (prefers-color-scheme:dark) {
      .background {
        fill: #000
      }

      .foreground {
        fill: #fff
      }
    }
  </style>
  <path d="M0 0h100v100H0z" class="background" />
  <path
    d="M69.2 71c-3.46 0-6.5-1.27-9.13-3.83-2.62-2.5-4.73-6.34-6.33-11.52l-3.08-9.99c-1.66-4.03-4.03-6.24-7.1-6.62l-2.3-.29c-.52 8.45-1.48 14.34-2.88 17.67-2.44 5.88-6.88 9.3-13.35 10.27-.13 0-.29.03-.48.1h-.48a7.5 7.5 0 0 1-4.41-1.35 4.31 4.31 0 0 1-1.92-3.74c0-.84.22-1.25.67-1.25.32 0 .48.48.48 1.44 0 1.15.64 2.08 1.92 2.78 1.09.58 2.24.87 3.45.87 3.72 0 6.56-2.02 8.55-6.05.7-1.47 1.34-3.27 1.92-5.38a52.94 52.94 0 0 0 1.34-7.39c.13-1.92.29-3.84.48-5.76l.58-5.76c1.34-11.97 4.22-20.48 8.64-25.54a23.7 23.7 0 0 0-4.13-.57c-1.34-.13-2.66-.2-3.94-.2-5.05 0-9.66.93-13.82 2.79a23.4 23.4 0 0 0-9.89 7.68c-2.43 3.26-3.65 7.17-3.65 11.71 0 3.52 1 6.47 2.98 8.83 1.98 2.3 4.74 3.46 8.26 3.46a9.3 9.3 0 0 0 5.56-1.73 11.43 11.43 0 0 0 3.84-4.51c.96-1.86 1.44-3.8 1.44-5.86a9.2 9.2 0 0 0-2.1-6.14 6.93 6.93 0 0 0-5.67-2.6c-1.54 0-2.88.55-4.03 1.64A4.92 4.92 0 0 0 18.89 28c0 .83.22 1.54.67 2.11.51.58 1.15.87 1.92.87.38 0 .58.12.58.38 0 .32-.16.48-.48.48a4.1 4.1 0 0 1-2.7-.86c-.63-.64-.95-1.57-.95-2.79a5.9 5.9 0 0 1 1.92-4.6 6.7 6.7 0 0 1 4.8-1.83c2.81 0 5.09.93 6.81 2.78a9.36 9.36 0 0 1 2.7 6.92c0 2.36-.55 4.54-1.64 6.52a12.99 12.99 0 0 1-4.51 4.8 12.8 12.8 0 0 1-6.72 1.73c-4.67 0-8.13-1.34-10.37-4.03-2.18-2.75-3.26-6.18-3.26-10.27 0-4.8 1.34-8.87 4.03-12.2a25.41 25.41 0 0 1 10.85-7.67 38.67 38.67 0 0 1 14.5-2.7c1.6 0 3.16.1 4.7.3 1.6.12 3.2.35 4.8.67 2.24-2.24 4.76-3.36 7.58-3.36 1.09 0 1.89.16 2.4.48.58.32.86.57.86.77 0 .25-.06.38-.19.38-.32-.13-.7-.26-1.15-.38-.38-.13-.8-.2-1.25-.2-2.5 0-4.51.93-6.05 2.79.9.19 2.02.54 3.36 1.05 1.41.45 2.85 1.06 4.32 1.83a11.7 11.7 0 0 1 3.75 2.78 12.9 12.9 0 0 1 3.36 8.74c0 4.86-2.21 8.6-6.63 11.23-3.64 2.11-8.1 3.17-13.34 3.17 6.34.32 11.49 5.73 15.46 16.22a38.37 38.37 0 0 0 4.9 9.31c2.8 3.65 5.6 5.48 8.34 5.48 2.56 0 3.84-1.48 3.84-4.42 0-.58.13-.86.39-.86.45 0 .67.57.67 1.72 0 1.16-.42 2.15-1.25 2.98a8.36 8.36 0 0 1-3.07 1.92 9.34 9.34 0 0 1-3.65.77ZM41.34 37.32a47.7 47.7 0 0 0 6.24-.77 15.9 15.9 0 0 0 8.64-4.7 12.72 12.72 0 0 0 3.75-9.02c0-6.4-3.97-10.56-11.9-12.48a34.05 34.05 0 0 0-5.2 12.96 69 69 0 0 0-.57 4.5c-.25 2.38-.57 5.54-.96 9.51Z"
    class="foreground" />
  <path
    d="M55.18 95.11c-3.84 0-7.3-.96-10.37-2.88a20.03 20.03 0 0 1-7.4-7.58 20.85 20.85 0 0 1-2.78-10.66c0-3.71.8-7.1 2.4-10.17a18.7 18.7 0 0 1 6.53-7.4 17.05 17.05 0 0 1 9.6-2.78c2.69 0 5.06.64 7.1 1.92a13.21 13.21 0 0 1 4.8 5.28 15.35 15.35 0 0 1 1.73 7.3c0 3.77-1.09 6.78-3.26 9.02a10.98 10.98 0 0 1-8.35 3.46c-1.6 0-2.82-.3-3.65-.87-.83-.51-1.25-.99-1.25-1.44 0-.57.2-.86.58-.86a3.22 3.22 0 0 0 1.82 1.63c.77.26 1.57.38 2.4.38 3.14 0 5.6-1.08 7.4-3.26 1.78-2.11 2.68-4.8 2.68-8.06 0-2.44-.51-4.64-1.54-6.63a11.22 11.22 0 0 0-10.46-6.62c-3.2 0-5.98.83-8.35 2.5a15.95 15.95 0 0 0-5.57 6.71 20.72 20.72 0 0 0-2.02 9.22c0 3.58.77 6.91 2.3 9.98a19.27 19.27 0 0 0 6.34 7.4 16.04 16.04 0 0 0 9.41 2.88c4.23 0 7.9-1.06 11.04-3.17 3.2-2.11 5.89-5 8.07-8.64a50.52 50.52 0 0 0 5.28-12.48c1.34-4.67 2.3-9.6 2.88-14.79.64-5.24.96-10.46.96-15.64 0-7.68.73-13.92 2.2-18.72 1.54-4.87 3.65-7.9 6.34-9.12a23 23 0 0 0-1.63-.3 22.37 22.37 0 0 0-12.58 2.02c-3 1.41-5.47 3.43-7.39 6.05a14.96 14.96 0 0 0-2.78 9.03c0 1.79.35 3.42 1.05 4.9.77 1.4 2.08 2.1 3.94 2.1 1.73 0 3.2-.7 4.41-2.1a7.29 7.29 0 0 0 1.92-4.9c0-.58-.06-1.19-.19-1.83-.13-.7-.25-1.12-.38-1.25-.13-.25-.2-.41-.2-.48 0-.38.2-.57.58-.57.32 0 .64.35.96 1.05.32.64.48 1.7.48 3.17a8.1 8.1 0 0 1-2.2 5.67 7.24 7.24 0 0 1-5.57 2.4c-2.37 0-4.13-.74-5.28-2.21a8.8 8.8 0 0 1-1.64-5.38c0-3.65 1.06-6.85 3.17-9.6a21.67 21.67 0 0 1 8.26-6.62c3.39-1.6 7-2.4 10.85-2.4.96 0 2.08.13 3.36.38 1.28.26 2.01.39 2.2.39h.3c.06.06.09.16.09.28 0 .07-.23.3-.67.68-.45.32-.9.83-1.35 1.53a21.2 21.2 0 0 0-3.36 7.68c-.51 2.56-.77 5.5-.77 8.83 0 2.18.04 4.61.1 7.3.13 2.62.2 5.6.2 8.93 0 6.4-.65 12.57-1.93 18.53a53.64 53.64 0 0 1-5.95 15.74 30.82 30.82 0 0 1-10.18 11.04c-4.1 2.69-8.99 4.03-14.68 4.03Z"
    class="foreground" />
</svg>